<?xml version="1.0" encoding="UTF-8" standalone="no"?>
<!-- Created with Inkscape (http://www.inkscape.org/) -->
<!DOCTYPE svg PUBLIC "-//W3C//DTD SVG 1.1//EN"
	"http://www.w3.org/Graphics/SVG/1.1/DTD/svg11.dtd">
<svg
   xmlns:dc="http://purl.org/dc/elements/1.1/"
   xmlns:cc="http://creativecommons.org/ns#"
   xmlns:rdf="http://www.w3.org/1999/02/22-rdf-syntax-ns#"
   xmlns:svg="http://www.w3.org/2000/svg"
   xmlns="http://www.w3.org/2000/svg"
   version="1.1"
   width="400.86722"
   height="87.004044"
   viewBox="0 0 320.69377 69.603235"
   id="svg2">
  <defs
     id="defs24" />
  <g
     transform="translate(-8.66,-234.98564)"
     id="gffffffff" />
  <g
     id="g3000">
    <path
       d="m 56.766308,0 c 4.387305,0.00467232 8.77461,0 13.164252,0.00233616 -0.0047,4.12098304 0.01168,8.24430224 -0.0093,12.36528584 -4.387305,-0.01168 -8.772274,-0.0023 -13.159579,-0.0047 C 56.775653,8.2419661 56.766308,4.1209831 56.766308,0 z"
       id="path6"
       style="fill:#00a0e3" />
    <path
       d="m 0,0.782613 c 16.002684,0 32.005367,0 48.005715,0.002336 0.0023,3.9808135 0.0023,7.9639633 0,11.947113 -11.290653,0.0047 -22.581305,0 -33.871958,0.0023 0,5.083481 0,10.164625 0,15.248105 9.89363,0.01635 19.789596,-0.0257 29.683226,0.02102 -0.04439,3.978478 0.01635,7.959291 -0.03037,11.937769 -9.884285,-0.02803 -19.768571,-0.007 -29.652856,-0.01168 0,9.456768 0,18.911201 0,28.365633 C 9.421726,68.297585 4.7120311,68.297585 0,68.297585 0,45.791037 0,23.286825 0,0.782613 z"
       id="path8"
       style="fill:#00a0e3" />
    <path
       d="m 197.8726,0.782613 c 4.3873,0 8.77461,0 13.16191,0 0,22.504212 0,45.01076 0,67.514972 -4.3873,0 -8.77461,0 -13.16191,0 0,-22.504212 0,-45.008424 0,-67.514972 z"
       id="path10"
       style="fill:#00a0e3" />
    <path
       d="m 105.89104,17.423068 c 2.09554,-0.502274 4.26583,-0.455551 6.40575,-0.390139 3.72851,0.221935 7.50374,1.427393 10.35385,3.910729 3.38743,2.910853 5.09984,7.428983 5.11385,11.837314 0.002,11.837313 -0.002,23.674627 0.002,35.511941 -4.406,0.0093 -8.80965,0.0023 -13.21565,0.0047 0,-10.199667 0,-20.399333 0,-30.601336 -0.014,-2.352512 -0.28267,-4.819495 -1.50682,-6.882322 -1.16341,-1.845565 -3.48088,-2.364192 -5.50399,-2.5908 -3.08606,-0.29202 -6.5576,0.226608 -8.823669,2.523051 -2.191316,2.352511 -3.111763,5.655839 -3.086065,8.816661 -0.007,9.578249 0,19.156497 -0.0023,28.734746 -4.387305,0 -8.77461,0 -13.161916,0 -0.0047,-16.71054 0.0093,-33.418743 -0.007,-50.126947 4.202749,-0.0023 8.405497,0.0093 12.60591,-0.0047 0,2.485672 -0.03271,4.973681 0.01869,7.461689 0.665805,-0.733553 1.05828,-1.661008 1.703059,-2.413251 2.198325,-2.952904 5.499311,-5.041429 9.104001,-5.791336 z"
       id="path12"
       style="fill:#00a0e3" />
    <path
       d="m 160.66694,17.025921 c 4.2378,-0.203246 8.56202,0.191565 12.53817,1.761463 4.01585,1.488133 7.58316,4.181723 10.07351,7.671944 2.74031,3.845316 4.35927,8.440539 4.82183,13.129209 0.40883,4.604568 0.15185,9.33996 -1.33628,13.743619 -1.55588,4.688669 -4.55551,8.905435 -8.53632,11.839649 -3.69347,2.698263 -8.23963,4.018192 -12.76477,4.347591 -4.42702,0.256977 -8.96618,-0.0257 -13.15958,-1.567562 -3.40612,-1.2405 -6.53424,-3.340707 -8.78162,-6.204837 -4.23312,-5.046101 -6.58096,-11.631731 -6.44313,-18.222034 -0.14717,-5.461937 1.19845,-11.014985 4.13734,-15.649923 1.81286,-2.83376 4.11865,-5.412879 6.99446,-7.202376 3.70515,-2.354848 8.1018,-3.441161 12.45639,-3.646743 m 1.12603,11.143475 c -3.19353,0.179884 -6.5903,1.429728 -8.36578,4.242463 -2.48801,4.151353 -3.11176,9.176429 -2.63519,13.925839 0.27567,3.263613 1.19144,6.665059 3.49723,9.099336 2.203,2.296444 5.511,3.195865 8.62276,3.053359 3.18185,0.112135 6.54125,-0.99754 8.62043,-3.499565 2.42493,-2.913189 3.08372,-6.840271 3.21455,-10.519721 0.14251,-3.670104 -0.4392,-7.410293 -2.03947,-10.739319 -0.72888,-1.63531 -1.932,-3.067375 -3.4762,-3.985486 -2.22402,-1.317593 -4.88724,-1.707731 -7.43833,-1.576906 z"
       id="path14"
       style="fill:#00a0e3" />
    <path
       d="m 233.41725,18.712627 c 4.37562,-1.747446 9.1811,-1.917986 13.82772,-1.600268 3.57666,0.369113 7.18602,1.319929 10.18798,3.36874 2.84077,1.857246 4.82651,4.73072 6.34267,7.713994 2.92487,5.737605 3.60703,12.299873 3.45051,18.654224 -11.44951,-0.01635 -22.89902,-0.0023 -34.3462,-0.0093 0.25231,3.291647 1.03725,6.823918 3.46452,9.227825 2.45531,2.579118 6.2796,3.279966 9.69973,2.964585 3.10242,-0.270995 6.16279,-2.294108 7.09258,-5.354475 4.50411,0.007 9.00822,0.007 13.51,0 -1.33862,4.686333 -4.14434,9.026915 -8.18823,11.816288 -3.55564,2.579119 -7.92659,3.92241 -12.29754,4.07426 -3.59768,0.135497 -7.23975,-0.133161 -10.71362,-1.123692 -2.96225,-0.834009 -5.77966,-2.263737 -8.0761,-4.324229 -2.94823,-2.607152 -4.89659,-6.179138 -6.01794,-9.914655 -1.23817,-4.209757 -1.60728,-8.632105 -1.5115,-13.005393 0.11214,-5.602107 1.70072,-11.25561 5.02975,-15.811119 2.0932,-3.018316 5.12086,-5.35681 8.54567,-6.67674 m 3.76822,11.239257 c -2.38288,2.109551 -3.41546,5.293735 -3.87335,8.354102 6.79822,0.123816 13.60578,0.01168 20.40634,0.05607 -0.18456,-2.756667 -1.07463,-5.583418 -3.04635,-7.590178 -1.376,-1.492805 -3.27529,-2.459975 -5.27037,-2.782365 -2.83843,-0.371449 -5.98524,0.02336 -8.21627,1.962373 z"
       id="path16"
       style="fill:#00a0e3" />
    <path
       d="m 56.761636,18.170638 c 4.389641,0 8.776946,0.0047 13.164251,0 0.0093,16.708204 0.0023,33.416407 0.0047,50.126947 -4.387306,0 -8.774611,0 -13.161916,0 -0.0047,-16.71054 0.0093,-33.418743 -0.007,-50.126947 z"
       id="path18"
       style="fill:#00a0e3" />
    <path
       d="m 271.95685,18.165966 c 5.2914,0.01402 10.58046,0.0023 15.87186,0.007 2.79871,4.845192 5.56005,9.711409 8.35877,14.554265 0.0397,0.007 0.11681,0.02103 0.15652,0.02803 2.82676,-4.849864 5.57641,-9.744116 8.40316,-14.59398 5.13021,0.02336 10.26275,0.0093 15.39529,0.0047 -5.52502,8.223277 -11.01265,16.469915 -16.54,24.68852 5.69555,8.48259 11.38877,16.967517 17.09133,25.445435 -5.39185,-0.0047 -10.78137,-0.0023 -16.17089,-0.0023 -2.93421,-5.032085 -5.86609,-10.061833 -8.81199,-15.084574 -2.8431,5.027413 -5.68387,10.057162 -8.52697,15.084574 -5.23533,-0.01168 -10.46833,0.02336 -15.70132,-0.01869 5.19328,-7.835475 10.32815,-15.710664 15.49574,-23.562492 0.37378,-0.635435 0.88306,-1.196113 1.16807,-1.882943 -5.3498,-8.248975 -10.81174,-16.432537 -16.18957,-24.667495 z"
       id="path20"
       style="fill:#00a0e3" />
  </g>
</svg>
